<svg width="147" height="170" viewBox="0 0 147 170" fill="none" xmlns="http://www.w3.org/2000/svg">
<g id="BACKGROUND">
<g id="Group">
<path id="Vector" d="M4.87372 63.3555L4.96134 62.6842C4.93943 62.9039 4.90657 63.1358 4.87372 63.3555Z" fill="#97DBD1"/>
<path id="Vector_2" d="M71.66 3.51331L54.6951 139.625C57.1703 140.137 59.6893 140.49 62.2521 140.661L79.1842 4.78082C76.7199 4.19581 74.2119 3.76925 71.66 3.51331Z" fill="#97DBD1"/>
<path id="Vector_3" d="M86.084 6.87708L69.4039 140.709C72.0543 140.563 74.6609 140.234 77.2128 139.734L93.3453 10.2287C91.0016 8.94897 88.5811 7.81552 86.084 6.87708Z" fill="#97DBD1"/>
<path id="Vector_4" d="M99.9714 14.4213L84.6055 137.687C87.4092 136.712 90.1144 135.53 92.732 134.153L106.926 20.2835C104.736 18.1507 102.414 16.1885 99.9714 14.4213Z" fill="#97DBD1"/>
<path id="Vector_5" d="M56.7651 4.06173L40.5011 134.603C42.8558 135.81 45.2981 136.834 47.7952 137.699L64.5411 3.26953C61.9016 3.34266 59.306 3.62297 56.7651 4.06173Z" fill="#97DBD1"/>
<path id="Vector_6" d="M113.202 27.3523L100.508 129.241C103.597 126.937 106.499 124.354 109.16 121.49L119.641 37.4193C117.769 33.8483 115.611 30.4723 113.213 27.3523H113.202Z" fill="#97DBD1"/>
<path id="Vector_7" d="M127.998 70.4233C127.856 63.6713 126.837 57.1875 125.074 51.0693L117.736 109.997C124.482 98.6742 128.305 85.0362 127.998 70.4233Z" fill="#97DBD1"/>
<path id="Vector_8" d="M41.3006 9.05868L26.8438 125.061C29.0561 127.096 31.3889 128.948 33.8312 130.63L49.3943 5.81677C46.6124 6.69428 43.9182 7.77898 41.3116 9.05868H41.3006Z" fill="#97DBD1"/>
<path id="Vector_9" d="M25.0147 20.7465L14.0297 108.936C15.9464 112.288 18.1368 115.444 20.5353 118.369L33.5903 13.5924C30.5456 15.7009 27.6761 18.1018 25.0147 20.7465Z" fill="#97DBD1"/>
<path id="Vector_10" d="M4.95038 62.672L4.86276 63.3423C4.49039 66.7061 4.3261 70.143 4.40277 73.6287C4.56705 81.6847 5.99083 89.3751 8.42221 96.5049L16.5816 31.0208C10.5031 40.1249 6.38511 50.9353 4.95038 62.672Z" fill="#97DBD1"/>
</g>
</g>
</svg>
