<svg width="147" height="155" viewBox="0 0 147 155" fill="none" xmlns="http://www.w3.org/2000/svg">
<g id="BACKGROUND">
<g id="Group">
<path id="Vector" d="M4.87372 57.5133L4.96134 56.8987C4.93943 57.0998 4.90657 57.3121 4.87372 57.5133Z" fill="#FFC803" fill-opacity="0.38"/>
<path id="Vector_2" d="M71.66 2.72607L54.6951 127.34C57.1703 127.809 59.6893 128.132 62.2521 128.288L79.1842 3.88652C76.7199 3.35093 74.2119 2.96039 71.66 2.72607Z" fill="#FFC803" fill-opacity="0.38"/>
<path id="Vector_3" d="M86.084 5.80566L69.4039 128.333C72.0543 128.199 74.6609 127.898 77.2128 127.44L93.3453 8.87415C91.0016 7.70254 88.5811 6.66484 86.084 5.80566Z" fill="#FFC803" fill-opacity="0.38"/>
<path id="Vector_4" d="M99.9714 12.7126L84.6055 125.566C87.4092 124.673 90.1144 123.591 92.732 122.33L106.926 18.0797C104.736 16.127 102.414 14.3306 99.9714 12.7126Z" fill="#FFC803" fill-opacity="0.38"/>
<path id="Vector_5" d="M56.7651 3.22821L40.5011 122.743C42.8558 123.847 45.2981 124.785 47.7952 125.577L64.5411 2.50293C61.9016 2.56988 59.306 2.82651 56.7651 3.22821Z" fill="#FFC803" fill-opacity="0.38"/>
<path id="Vector_6" d="M113.202 24.5513L100.508 117.833C103.597 115.724 106.499 113.359 109.16 110.737L119.641 33.7679C117.769 30.4985 115.611 27.4077 113.213 24.5513H113.202Z" fill="#FFC803" fill-opacity="0.38"/>
<path id="Vector_7" d="M127.998 63.9842C127.856 57.8026 126.837 51.8665 125.074 46.2651L117.736 100.215C124.482 89.8487 128.305 77.3628 127.998 63.9842Z" fill="#FFC803" fill-opacity="0.38"/>
<path id="Vector_8" d="M41.3006 7.80302L26.8438 114.006C29.0561 115.869 31.3889 117.565 33.8312 119.105L49.3943 4.83496C46.6124 5.63835 43.9182 6.63142 41.3116 7.80302H41.3006Z" fill="#FFC803" fill-opacity="0.38"/>
<path id="Vector_9" d="M25.0147 18.5037L14.0297 99.2438C15.9464 102.312 18.1368 105.202 20.5353 107.88L33.5903 11.9539C30.5456 13.8842 27.6761 16.0824 25.0147 18.5037Z" fill="#FFC803" fill-opacity="0.38"/>
<path id="Vector_10" d="M4.95038 56.8875L4.86276 57.5012C4.49039 60.5809 4.3261 63.7275 4.40277 66.9187C4.56705 74.2942 5.99083 81.335 8.42221 87.8625L16.5816 27.9099C10.5031 36.245 6.38511 46.1423 4.95038 56.8875Z" fill="#FFC803" fill-opacity="0.38"/>
</g>
</g>
</svg>
